<svg width="75" height="75" fill="none" xmlns="http://www.w3.org/2000/svg"><path d="M41.894 63.28h-8.788a5.866 5.866 0 00-5.86 5.86 5.866 5.866 0 005.86 5.86h8.788a5.867 5.867 0 005.86-5.86 5.866 5.866 0 00-5.86-5.86zm0 8.79h-8.788a2.933 2.933 0 01-2.93-2.93 2.933 2.933 0 012.93-2.93h8.788a2.933 2.933 0 012.93 2.93 2.933 2.933 0 01-2.93 2.93zM29.585 40.578l-3.459 3.797L6.824 41.3C3.253 40.703 0 43.462 0 47.08v3.602c0 5.655 4.6 10.255 10.254 10.255h14.06a5.875 5.875 0 004.335-1.916l8.858-9.727 8.842 9.727a5.876 5.876 0 004.336 1.916h14.059c5.654 0 10.254-4.6 10.254-10.255V47.08c0-3.636-3.274-6.372-6.812-5.782l-19.313 3.078-3.44-3.785 3.216-3.533a1.465 1.465 0 00-2.166-1.973l-20 21.964a2.94 2.94 0 01-2.169.958H11.72v-12.96l14.726 2.347c.487.078.981-.095 1.314-.46.845-.928 25.72-28.24 25.749-28.27l4.15 4.15-2.303 2.528a1.465 1.465 0 002.166 1.972L73.473 9.797a5.856 5.856 0 00-.392-8.28 5.875 5.875 0 00-8.275.392L37.511 31.876 10.193 1.909a5.874 5.874 0 00-8.272-.39 5.855 5.855 0 00-.393 8.28l28.057 30.78zm39.073 3.611a2.93 2.93 0 013.411 2.89v3.602c0 3.538-2.52 6.497-5.86 7.178v-13.28l2.45-.39zM47.24 46.932c.332.366.826.539 1.314.461l14.726-2.347v12.96H50.686a2.94 2.94 0 01-2.17-.957l-9.027-9.931 3.963-4.352 3.788 4.166zM8.79 57.86c-3.339-.68-5.859-3.64-5.859-7.178V47.08a2.93 2.93 0 013.421-2.888l2.438.388v13.28zM66.971 3.883a2.94 2.94 0 014.141-.196 2.928 2.928 0 01.195 4.138L59.633 20.644l-4.15-4.15L66.972 3.883zm-35.405 34.52L17.348 22.806l4.148-4.15L35.53 34.053l-3.963 4.351zM3.889 3.687a2.94 2.94 0 014.14.195L19.52 16.49l-4.148 4.15L3.694 7.824a2.927 2.927 0 01.195-4.138z" fill="#0A75ED"/><path d="M52.002 32.662a1.465 1.465 0 100-2.93 1.465 1.465 0 000 2.93z" fill="#0A75ED"/></svg>