<svg width="75" height="75" fill="none" xmlns="http://www.w3.org/2000/svg"><path d="M47.928 59.147c-4.368 0-7.926 3.559-7.926 7.926 0 4.368 3.558 7.927 7.926 7.927 4.384 0 7.926-3.559 7.926-7.927 0-4.367-3.559-7.926-7.926-7.926zm0 13.426c-3.025 0-5.5-2.474-5.5-5.5 0-3.024 2.475-5.5 5.5-5.5 3.041 0 5.5 2.476 5.5 5.5 0 3.026-2.475 5.5-5.5 5.5zM74.23 5.425L68.004.281a1.178 1.178 0 00-.89-.275 1.214 1.214 0 00-.825.453l-2.572 3.22c-.42.517-.34 1.277.178 1.698l.599.501-50.066 54.434c-.017.016-.033.032-.033.048-.647.777-1.585.906-2.33.308-.55-.583-.582-1.36-.08-1.99.016-.016.016-.032.032-.049l.194-.258.615-.745c1.488-1.65 1.941-3.704 1.278-5.661-.728-2.12-2.701-3.786-4.901-4.158-2.087-.355-4.11.47-5.533 2.281 0 .016-.016.016-.016.033l-.647.857c-.016.016-.016.032-.032.048C.92 54.051-.131 57.513.015 60.748c.145 3.479 1.617 6.536 4.238 8.817l.161.145.049.049c2.54 2.038 5.63 3.122 8.784 3.122.372 0 .728-.016 1.1-.049 3.558-.29 6.826-1.94 9.204-4.658.016-.017.032-.033.032-.049l46.022-58.041.502.42c.226.178.485.276.776.276h.13c.323-.033.614-.194.825-.453l2.572-3.22a1.203 1.203 0 00-.178-1.682zM21.69 66.572c-4.077 4.626-10.822 5.177-15.724 1.278l-.13-.13-.015-.016c-4.222-3.672-4.578-9.835-.874-15.319l.615-.825c1.116-1.407 2.362-1.52 3.219-1.375 1.343.227 2.572 1.278 3.025 2.556.275.793.356 2.006-.793 3.268-.016.016-.032.032-.032.048l-.647.793c-.016.016-.032.032-.049.065l-.194.258c-1.262 1.602-1.132 3.786.324 5.242l.08.08c1.78 1.473 4.255 1.23 5.76-.566l33.921-36.914 2.718 2.216L21.69 66.572zm32.725-41.234l-2.589-2.103L66.304 7.463l1.391 1.117-13.28 16.758zm16.29-17.486l-4.352-3.608 1.051-1.326 4.352 3.607-1.052 1.327z" fill="#0A75ED"/></svg>