<svg width="13" height="22" fill="none" xmlns="http://www.w3.org/2000/svg"><path d="M.765 12.776h2.567v8.536c0 .38.341.687.764.687L8.182 22c.423 0 .764-.309.764-.688v-8.536h2.434c.385 0 .71-.258.758-.602l.508-3.666c.057-.41-.299-.773-.758-.773H8.946C9.062 5.47 8.503 4.8 10.141 4.8c1.11-.12 2.859.386 2.859-.688V.833c0-.343-.282-.634-.66-.68C12.02.112 10.753 0 9.184 0 2.038 0 3.509 7.124 3.333 7.734H.765c-.422 0-.765.308-.765.687v3.667c0 .38.343.688.765.688zm.764-3.666h2.567c.423 0 .765-.308.765-.688V5.534c0-2.643 1.575-4.158 4.323-4.158.895 0 1.719.04 2.286.08v1.97c-.41.188-4.054-.81-4.054 2.472v2.525c0 .38.343.688.765.688h2.84l-.318 2.291H8.181c-.422 0-.765.308-.765.688v8.535H4.862v-8.536c0-.38-.342-.688-.765-.688H1.53V9.11z" fill="#007AFF"/></svg>