<svg width="75" height="67" fill="none" xmlns="http://www.w3.org/2000/svg"><path d="M72.642 52.37l-.398-.413c.247-.35.503-.737.754-1.154 1.583-2.628 2.2-5.1 1.832-7.345-.287-1.752-1.353-4.22-4.8-6.026-1.846-.967-3.691-1.815-5.475-2.635-2.95-1.356-5.737-2.636-8.434-4.379-5.004-3.233-8.867-8.12-10.878-13.763-1.33-3.73-3.034-9.188-3.611-14.014A2.194 2.194 0 0039.828.739c-.174-.03-4.33-.73-9.714.126-7.208 1.144-13.238 4.548-17.439 9.843a2.204 2.204 0 00-.474 1.31c-.002.06-.178 5.925-2.693 11.578-2.328 5.233-2.805 11.029-1.344 16.32.21.758.451 1.47.717 2.123.2.768 1.486 5.938.781 10.01a2.194 2.194 0 002.162 2.569h3.567v7.553H2.194a2.194 2.194 0 000 4.387H66.66c.11 0 .219-.001.328-.005 3.299-.111 6.125-2.094 7.375-5.173 1.27-3.132.612-6.584-1.721-9.01zM13.517 25.38c2.339-5.257 2.9-10.526 3.032-12.477 3.49-4.136 8.235-6.72 14.113-7.682a30.228 30.228 0 016.86-.322c.124.766.27 1.538.43 2.308L34.82 10.34a2.194 2.194 0 103.102 3.102l1.27-1.27c.306 1.074.626 2.112.943 3.09l-2.39 2.39a2.194 2.194 0 103.102 3.103l.926-.926a31.724 31.724 0 001.837 3.66l-1.477 1.477a2.194 2.194 0 103.102 3.102l.894-.894a31.582 31.582 0 007.611 6.93c2.96 1.913 6.021 3.32 8.982 4.68 1.733.797 3.525 1.62 5.27 2.535 1.499.785 2.319 1.715 2.506 2.841.345 2.077-1.31 4.67-2.434 6.07H52.49c-5.264-.469-15.103-3.59-17.683-4.786-3.315-1.537-17.708-4.928-22.194-5.967-.077-.234-.15-.478-.22-.73-1.19-4.313-.792-9.06 1.124-13.368zm.301 18.884a512.52 512.52 0 019.862 2.42 19.925 19.925 0 00-1.243 2.097c-.271.525-.5 1.02-.687 1.45h-7.508c.076-2.144-.15-4.272-.424-5.967zm5.961 10.354h3.465c.945 0 1.785-.606 2.082-1.504.328-.99 1.43-3.596 2.967-5.196 2.204.618 3.901 1.15 4.67 1.507 2.896 1.342 11.56 4.08 17.411 4.963v7.783H19.779v-7.553zm50.518 5.111c-.598 1.474-1.89 2.386-3.458 2.439a5.34 5.34 0 01-.18.003H54.762v-7.553h13.954l.763.793c1.333 1.386 1.297 3.14.818 4.319z" fill="#0A75ED"/></svg>