<svg width="75" height="75" fill="none" xmlns="http://www.w3.org/2000/svg"><path d="M61.723 13.768c4.498 0 8.158-3.089 8.158-6.884 0-3.796-3.66-6.884-8.158-6.884-4.499 0-8.158 3.088-8.158 6.884 0 3.795 3.66 6.883 8.158 6.883zm0-11.57c3.062 0 5.554 2.102 5.554 4.686s-2.492 4.686-5.554 4.686c-3.063 0-5.554-2.102-5.554-4.686s2.492-4.687 5.554-4.687zm13.099 67.403c-.616-1.591-2.641-2.46-4.527-1.94l-1.797.496c-4.671 1.286-9.88.97-14.29-.869-.645-.268-1.425-.045-1.744.499-.318.544-.054 1.203.59 1.471 5.016 2.09 10.939 2.45 16.251.988l1.798-.496c.516-.142 1.073.095 1.243.533.168.436-.112.906-.632 1.05l-1.797.494c-6.241 1.719-13.098 1.146-18.807-1.553l-8.673-4.099 1.28-1.302 3.96 1.872c.627.296 1.421.108 1.773-.422.351-.53.127-1.199-.5-1.495l-6.748-3.19c.366-.285.684-.617.939-.99 1.3-1.91.619-4.307-1.475-5.528l9.7-9.858c1.774-1.803 1.447-4.465-.692-5.927l-12.541-10.33a.39.39 0 01-.074-.546 28.61 28.61 0 011.338-1.612l5.62 2.618v.94c0 1.513.973 2.913 2.538 3.653l13.708 6.478c2.009.95 4.45.592 5.973-.724l2.484 1.157c.63.293 1.422.1 1.77-.431.346-.531.118-1.2-.512-1.493l-2.473-1.152c.521-1.757-.363-3.705-2.392-4.663l-2.962-1.4-8.208-3.88v-4.644c0-.607-.583-1.099-1.302-1.099-.72 0-1.302.492-1.302 1.099v4.685c0 .769.494 1.48 1.29 1.856l7.021 3.319-2.625 3.321-9.198-4.346c-.743-.352-1.206-1.017-1.206-1.737v-16.11c0-1.09 1.012-2.043 2.318-2.062 1.304-.02 2.4.869 2.4 1.989v3.958c0 .607.583 1.098 1.302 1.098.719 0 1.302-.492 1.302-1.098V14.22c0-.687-.195-1.347-.56-1.936-.407-1.215-1.37-2.276-2.671-2.928-1.373-.688-2.984-.877-4.537-.531-1.648.368-3.29.867-4.88 1.486-3.781 1.47-8.713 4.188-13.321 9.171l-11.376-5.297 1.023-1.568c.347-.532.117-1.2-.513-1.493-.63-.292-1.421-.098-1.768.433l-1.022 1.566-3.043-1.417c-.63-.293-1.421-.1-1.769.431-.347.531-.119 1.2.511 1.493l3.045 1.418-1.097 1.682c-.347.532-.117 1.2.512 1.493.63.292 1.422.099 1.769-.433l1.096-1.68 11.08 5.16a42.727 42.727 0 00-3.54 5.033c-1.52 2.525-.69 5.449 2.065 7.276l9.254 6.14-6.57 6.692h-.002l-4.444 4.526a3.97 3.97 0 00-1.01 1.708L5.344 44.218c-1.728-.816-3.915-.301-4.887 1.163-.967 1.458-.349 3.307 1.378 4.123l20.901 9.879L49.84 72.19c6.333 2.994 13.944 3.637 20.886 1.725l1.798-.495c1.886-.519 2.914-2.228 2.299-3.82zM62.929 34.243l1.912.904c1.137.537 1.543 1.749.906 2.709-.64.962-2.078 1.3-3.211.763l-2.233-1.055 2.626-3.321zm-22.802 30.84l-14.753-6.972 1.28-1.302 14.754 6.973-1.281 1.301zm-8.328-8.361c-.168-.603.012-1.257.479-1.732l3.673-3.733 4.222 1.94-.77.783c-.891.905-.598 2.27.61 2.855 1.13.549 1.52 1.764.87 2.718-.28.41-.718.718-1.236.877l-7.848-3.708zm5.45-15.642l3.226 2.14-5.16 5.244-3.669-1.68 5.603-5.704zm3.833-15.958a22.808 22.808 0 013.935-2.956v4.79l-3.935-1.834zm2.302-12.814a31.05 31.05 0 013.04-1.005c-.87.754-1.407 1.784-1.407 2.918v5.332c-2.26 1.126-4.358 2.627-6.27 4.482l-7.461-3.474c4.219-4.47 8.672-6.921 12.098-8.253zm-6.288 13.468c-.37.425-.734.865-1.09 1.32l-8.411-1.956a39.148 39.148 0 012.118-2.802l7.383 3.438zM26.203 27.3l.11-.178 9.13 2.123c.128.511.447.984.871 1.334.077.063 12.608 10.388 12.693 10.445 1.043.692 1.204 1.974.356 2.835l-7.495 7.617-4.221-1.941 5.082-5.165c.8-.812.648-2.018-.335-2.67l-14.837-9.846c-1.75-1.161-2.294-2.991-1.354-4.554zm-.013 25.04l3.763-3.832 3.666 1.679-3.345 3.398a3.994 3.994 0 00-1.055 1.916L25.66 53.82a1.805 1.805 0 01.53-1.48zM2.729 46.455c.266-.401.867-.545 1.342-.32l20.273 9.582-1.28 1.302-19.956-9.432c-.475-.224-.645-.732-.38-1.132z" fill="#0A75ED"/></svg>