<svg width="23" height="21" fill="none" xmlns="http://www.w3.org/2000/svg"><path d="M11.504 5.108c-3.261 0-5.901 2.413-5.901 5.388 0 2.977 2.643 5.388 5.901 5.388 3.261 0 5.901-2.413 5.901-5.388 0-2.978-2.643-5.388-5.901-5.388zm0 8.885c-2.117 0-3.83-1.565-3.83-3.497s1.714-3.497 3.83-3.497 3.83 1.565 3.83 3.497c.001 1.932-1.713 3.497-3.83 3.497z" fill="#007AFF"/><path d="M16.242.066c-2.116-.09-7.357-.086-9.475 0-1.861.08-3.503.49-4.826 1.698C-.271 3.784.01 6.505.01 10.496c0 4.084-.248 6.742 1.93 8.731 2.22 2.027 5.244 1.762 9.563 1.762 4.431 0 5.96.002 7.528-.552 2.13-.755 3.738-2.493 3.895-5.616.1-1.933.094-6.717 0-8.651-.19-3.686-2.356-5.922-6.685-6.104zm3.35 17.825c-1.45 1.324-3.462 1.206-8.116 1.206-4.791 0-6.713.065-8.115-1.219-1.615-1.467-1.322-3.824-1.322-7.396 0-4.835-.544-8.316 4.77-8.565 1.221-.039 1.58-.052 4.654-.052l.043.026c5.107 0 9.114-.488 9.354 4.363.055 1.107.067 1.44.067 4.24 0 4.325.09 6.09-1.336 7.397z" fill="#007AFF"/><path d="M17.64 6.154c.76 0 1.378-.564 1.378-1.259s-.617-1.26-1.379-1.26c-.761 0-1.379.565-1.379 1.26 0 .695.618 1.26 1.38 1.26z" fill="#007AFF"/></svg>