<svg width="23" height="20" fill="none" xmlns="http://www.w3.org/2000/svg"><path d="M22.55.365A1.388 1.388 0 0021.177.07L.954 6.75a1.38 1.38 0 00-.952 1.255 1.38 1.38 0 00.83 1.34l5.001 2.193c.025.113 1.46 6.785 1.51 7.012.062.292.21.551.522.631.316.08.54-.093.776-.27l3.711-2.784 4.339 3.558a1.379 1.379 0 001.325.24c.457-.155.795-.528.906-.998L22.963 1.71A1.394 1.394 0 0022.55.365zM8.964 12.795a.186.186 0 00-.007.02l-.837 2.928-.934-4.338 6.42-3.575-4.488 4.703a.677.677 0 00-.154.261zm.265 3.984l.38-1.33.364-1.273 1.302 1.068-2.046 1.535zm12.42-15.38l-4.042 17.217c-.002.01-.005.02-.025.028-.02.006-.029-.001-.035-.007l-4.748-3.893-2.2-1.804 7.067-7.404a.678.678 0 00-.816-1.06L6.385 10.302 1.373 8.105c-.015-.007-.023-.01-.022-.036.001-.026.01-.029.026-.034L21.6 1.355c.01-.003.02-.007.037.008.016.015.014.026.011.037z" fill="#007AFF"/></svg>